# xmcd
# Track frame offsets:
# 150
# 12048
# 28828
# 53348
# 67721
# 85349
# 101004
# 135355
# 151363
# 166103
#
# Disc length: 2375 seconds
# Revision: 0
# Processed by: cddbd v1.5.2PL0 Copyright (c) Steve Scherf et al.
# Submitted via: VisiTrax 2.10.0.248 - For more info visit www.synapsa.com
#
DISCID=6709450a
DTITLE=Earl, Ronnie - They Call Me Mr. Earl
DYEAR=1900
DGENRE=Blues
TTITLE0=You Give Me Nothin' But The Blues
TTITLE1=Follow Your Heart
TTITLE2=Why Should I Feel Bad
TTITLE3=You've Got Me Wrong
TTITLE4=Narcolepsy (Mr. Earl Wakes Up Late)
TTITLE5=Some Day, Some Way
TTITLE6=Drinking and Thinking
TTITLE7=Let Me Love You
TTITLE8=No More Chances
TTITLE9=Waitin' For My Chance
EXTD=
EXTT0=
EXTT1=
EXTT2=
EXTT3=
EXTT4=
EXTT5=
EXTT6=
EXTT7=
EXTT8=
EXTT9=
PLAYORDER=
